<svg width="20" height="20" viewBox="0 0 20 20" fill="none" xmlns="http://www.w3.org/2000/svg">
<path d="M1.66666 13.4531V4.16492C1.66666 3.24977 2.40524 2.50635 3.31866 2.56249C4.1323 2.6125 5.09456 2.71134 5.83332 2.90628C6.70766 3.13701 7.74675 3.62842 8.56853 4.06296C8.82441 4.19827 9.09651 4.29212 9.37499 4.34503L9.37499 16.9939C9.12254 16.9382 8.87625 16.8484 8.64367 16.7245C7.81077 16.2805 6.73453 15.7657 5.83332 15.5279C5.10273 15.3351 4.15356 15.2363 3.34571 15.1858C2.42169 15.128 1.66666 14.3789 1.66666 13.4531Z" fill="#243757"/>
<path d="M10.625 16.9939C10.8774 16.9382 11.1237 16.8484 11.3563 16.7245C12.1892 16.2805 13.2654 15.7657 14.1667 15.5279C14.8972 15.3351 15.8464 15.2363 16.6543 15.1858C17.5783 15.128 18.3333 14.3789 18.3333 13.4531V4.11108C18.3333 3.21737 17.6281 2.48376 16.735 2.51487C15.7945 2.54763 14.6224 2.6451 13.75 2.90628C12.9936 3.13272 12.1127 3.5869 11.3949 4.00238C11.152 4.14295 10.8923 4.24621 10.625 4.31167L10.625 16.9939Z" fill="#243757"/>
</svg>
