<svg width="20" height="20" viewBox="0 0 20 20" fill="none" xmlns="http://www.w3.org/2000/svg">
<path d="M14.6481 3.69301L12.9814 2.81839C11.5184 2.05063 10.7869 1.66675 9.99999 1.66675C9.2131 1.66675 8.48159 2.05063 7.01857 2.81839L6.75046 2.95908L14.1863 7.20814L17.5336 5.53452C16.9951 4.92466 16.1262 4.4687 14.6481 3.69301Z" fill="#243757"/>
<path d="M18.1236 6.63704L14.7917 8.30302V10.8334C14.7917 11.1786 14.5118 11.4584 14.1667 11.4584C13.8215 11.4584 13.5417 11.1786 13.5417 10.8334V8.92802L10.625 10.3864V18.2534C11.2233 18.1044 11.904 17.7472 12.9814 17.1818L14.6481 16.3071C16.4411 15.3662 17.3377 14.8957 17.8355 14.0503C18.3333 13.2049 18.3333 12.1529 18.3333 10.0488V9.95134C18.3333 8.37413 18.3333 7.38806 18.1236 6.63704Z" fill="#243757"/>
<path d="M9.37499 18.2534V10.3864L1.87636 6.63704C1.66666 7.38806 1.66666 8.37412 1.66666 9.95134V10.0488C1.66666 12.1529 1.66666 13.2049 2.16449 14.0503C2.66232 14.8957 3.55884 15.3662 5.35189 16.3071L7.01857 17.1818C8.09602 17.7472 8.77672 18.1044 9.37499 18.2534Z" fill="#243757"/>
<path d="M2.4664 5.53452L9.99999 9.30131L12.8426 7.88L5.43713 3.64829L5.3519 3.69301C3.87378 4.4687 3.00491 4.92466 2.4664 5.53452Z" fill="#243757"/>
</svg>
