<svg width="20" height="20" viewBox="0 0 20 20" fill="none" xmlns="http://www.w3.org/2000/svg">
<path d="M10.8333 12.8334C10.8333 11.1049 10.8333 10.2407 11.3825 9.70372C11.9317 9.16675 12.8156 9.16675 14.5833 9.16675C16.3511 9.16675 17.235 9.16675 17.7842 9.70372C18.3333 10.2407 18.3333 11.1049 18.3333 12.8334V14.6667C18.3333 16.3952 18.3333 17.2595 17.7842 17.7964C17.235 18.3334 16.3511 18.3334 14.5833 18.3334C12.8156 18.3334 11.9317 18.3334 11.3825 17.7964C10.8333 17.2595 10.8333 16.3952 10.8333 14.6667V12.8334Z" fill="#243757"/>
<path d="M1.66666 7.16675C1.66666 8.89523 1.66666 9.75947 2.21583 10.2964C2.76501 10.8334 3.64889 10.8334 5.41666 10.8334C7.18442 10.8334 8.06831 10.8334 8.61748 10.2964C9.16666 9.75947 9.16666 8.89523 9.16666 7.16675V5.33341C9.16666 3.60493 9.16666 2.74069 8.61748 2.20372C8.06831 1.66675 7.18442 1.66675 5.41666 1.66675C3.64889 1.66675 2.76501 1.66675 2.21583 2.20372C1.66666 2.74069 1.66666 3.60493 1.66666 5.33341V7.16675Z" fill="#243757"/>
<path d="M10.8333 4.58341C10.8333 3.67742 10.8333 3.22442 10.9761 2.86709C11.1664 2.39064 11.5314 2.01211 11.9908 1.81476C12.3354 1.66675 12.7722 1.66675 13.6458 1.66675H15.5208C16.3945 1.66675 16.8313 1.66675 17.1759 1.81476C17.6353 2.01211 18.0003 2.39064 18.1906 2.86709C18.3333 3.22442 18.3333 3.67742 18.3333 4.58341C18.3333 5.48941 18.3333 5.94241 18.1906 6.29974C18.0003 6.77619 17.6353 7.15472 17.1759 7.35207C16.8313 7.50008 16.3945 7.50008 15.5208 7.50008H13.6458C12.7722 7.50008 12.3354 7.50008 11.9908 7.35207C11.5314 7.15472 11.1664 6.77619 10.9761 6.29974C10.8333 5.94241 10.8333 5.48941 10.8333 4.58341Z" fill="#243757"/>
<path d="M1.66666 15.4167C1.66666 16.3227 1.66666 16.7757 1.80938 17.133C1.99968 17.6094 2.3647 17.988 2.82413 18.1853C3.1687 18.3333 3.60552 18.3333 4.47916 18.3333H6.35416C7.2278 18.3333 7.66462 18.3333 8.00919 18.1853C8.46862 17.988 8.83363 17.6094 9.02393 17.133C9.16666 16.7757 9.16666 16.3227 9.16666 15.4167C9.16666 14.5107 9.16666 14.0577 9.02393 13.7003C8.83363 13.2239 8.46862 12.8454 8.00919 12.648C7.66462 12.5 7.2278 12.5 6.35416 12.5H4.47916C3.60552 12.5 3.1687 12.5 2.82413 12.648C2.3647 12.8454 1.99968 13.2239 1.80938 13.7003C1.66666 14.0577 1.66666 14.5107 1.66666 15.4167Z" fill="#243757"/>
</svg>
