<svg width="20" height="20" viewBox="0 0 20 20" fill="none" xmlns="http://www.w3.org/2000/svg">
<path fill-rule="evenodd" clip-rule="evenodd" d="M18.3333 10.0001C18.3333 14.6025 14.6024 18.3334 9.99999 18.3334C5.39762 18.3334 1.66666 14.6025 1.66666 10.0001C1.66666 5.39771 5.39762 1.66675 9.99999 1.66675C14.6024 1.66675 18.3333 5.39771 18.3333 10.0001ZM12.5 7.50008C12.5 8.88079 11.3807 10.0001 9.99999 10.0001C8.61928 10.0001 7.49999 8.88079 7.49999 7.50008C7.49999 6.11937 8.61928 5.00008 9.99999 5.00008C11.3807 5.00008 12.5 6.11937 12.5 7.50008ZM9.99998 17.0834C11.4867 17.0834 12.8664 16.6254 14.0058 15.8428C14.509 15.4971 14.724 14.8386 14.4315 14.3028C13.8249 13.192 12.5752 12.5001 9.99994 12.5001C7.42473 12.5001 6.17496 13.1919 5.56844 14.3027C5.27586 14.8385 5.49091 15.497 5.99412 15.8427C7.13348 16.6254 8.51324 17.0834 9.99998 17.0834Z" fill="#243757"/>
</svg>
